<svg width="36" height="44" viewBox="0 0 36 44" fill="none" xmlns="http://www.w3.org/2000/svg">
<path d="M10.2997 37.1H25.0997V31.7C25.0997 29.6333 24.383 27.8833 22.9497 26.45C21.5164 25.0166 19.7664 24.3 17.6997 24.3C15.633 24.3 13.883 25.0166 12.4497 26.45C11.0164 27.8833 10.2997 29.6333 10.2997 31.7V37.1ZM17.6997 19.1C19.7664 19.1 21.5164 18.3833 22.9497 16.95C24.383 15.5166 25.0997 13.7666 25.0997 11.7V6.29995H10.2997V11.7C10.2997 13.7666 11.0164 15.5166 12.4497 16.95C13.883 18.3833 15.633 19.1 17.6997 19.1ZM-0.000293255 43.4V37.1H3.99971V31.7C3.99971 29.8 4.38304 27.975 5.14971 26.225C5.91637 24.475 6.99971 22.9666 8.39971 21.7C6.99971 20.4333 5.91637 18.925 5.14971 17.175C4.38304 15.425 3.99971 13.6 3.99971 11.7V6.29995H-0.000293255V-4.95911e-05H35.3997V6.29995H31.3997V11.7C31.3997 13.6 31.0247 15.425 30.2747 17.175C29.5247 18.925 28.433 20.4333 26.9997 21.7C28.433 22.9666 29.5247 24.475 30.2747 26.225C31.0247 27.975 31.3997 29.8 31.3997 31.7V37.1H35.3997V43.4H-0.000293255Z" fill="#2D3449"/>
</svg>
